<?xml version="1.0" encoding="UTF-8"?>
<svg width="50px" height="40px" viewBox="0 0 50 40" version="1.1" xmlns="http://www.w3.org/2000/svg" xmlns:xlink="http://www.w3.org/1999/xlink">
    <!-- Generator: Sketch 52.6 (67491) - http://www.bohemiancoding.com/sketch -->
    <title>twitter</title>
    <desc>Created with Sketch.</desc>
    <g id="Site" stroke="none" stroke-width="1" fill="none" fill-rule="evenodd">
        <g id="Desktop-HD" transform="translate(-940.000000, -5146.000000)" fill="#122461">
            <g id="Group-2" transform="translate(843.000000, 5146.000000)">
                <g id="twitter" transform="translate(97.000000, 0.000000)">
                    <path d="M44.1701923,9.97269231 C44.2014423,10.41 44.2014423,10.8474038 44.2014423,11.2847115 C44.2014423,24.6231731 34.0492308,39.9922115 15.4939423,39.9922115 C9.77740385,39.9922115 4.46701923,38.3365385 0,35.4627885 C0.812211538,35.5564423 1.59307692,35.5876923 2.43653846,35.5876923 C7.15336538,35.5876923 11.4954808,33.9946154 14.9628846,31.2769231 C10.5271154,31.1831731 6.80980769,28.2780769 5.52903846,24.2796154 C6.15384615,24.3732692 6.77855769,24.4357692 7.43461538,24.4357692 C8.34048077,24.4357692 9.24644231,24.3107692 10.0898077,24.0922115 C5.46663462,23.155 1.99913462,19.0941346 1.99913462,14.1898077 L1.99913462,14.0649038 C3.34230769,14.8146154 4.90432692,15.2831731 6.55980769,15.3455769 C3.84211538,13.53375 2.06163462,10.44125 2.06163462,6.94259615 C2.06163462,5.06836538 2.56134615,3.35028846 3.43605769,1.85086538 C8.40288462,7.97346154 15.86875,11.9718269 24.2403846,12.4092308 C24.0842308,11.6595192 23.9904808,10.8786538 23.9904808,10.0976923 C23.9904808,4.53730769 28.48875,0.00788461538 34.0802885,0.00788461538 C36.9853846,0.00788461538 39.6093269,1.22615385 41.4524038,3.19413462 C43.7326923,2.75682692 45.9193269,1.91336538 47.8561538,0.757596154 C47.1063462,3.10048077 45.5132692,5.06846154 43.4203846,6.31788462 C45.4508654,6.09932692 47.4188462,5.53692308 49.2305769,4.75605769 C47.8563462,6.75519231 46.1381731,8.53567308 44.1701923,9.97269231 Z" id="Path"></path>
                </g>
            </g>
        </g>
    </g>
</svg>