<?xml version="1.0" encoding="UTF-8"?>
<svg width="40px" height="40px" viewBox="0 0 40 40" version="1.1" xmlns="http://www.w3.org/2000/svg" xmlns:xlink="http://www.w3.org/1999/xlink">
    <!-- Generator: Sketch 52.6 (67491) - http://www.bohemiancoding.com/sketch -->
    <title>instagram</title>
    <desc>Created with Sketch.</desc>
    <g id="Site" stroke="none" stroke-width="1" fill="none" fill-rule="evenodd">
        <g id="Desktop-HD" transform="translate(-1065.000000, -5146.000000)" fill="#122461" fill-rule="nonzero">
            <g id="Group-2" transform="translate(843.000000, 5146.000000)">
                <g id="instagram" transform="translate(222.000000, 0.000000)">
                    <path d="M20.0044618,9.74450519 C14.3290574,9.74450519 9.75125488,14.3233292 9.75125488,20 C9.75125488,25.6766708 14.3290574,30.2554948 20.0044618,30.2554948 C25.6798661,30.2554948 30.2576687,25.6766708 30.2576687,20 C30.2576687,14.3233292 25.6798661,9.74450519 20.0044618,9.74450519 Z M20.0044618,26.6674105 C16.3368656,26.6674105 13.3385388,23.6773402 13.3385388,20 C13.3385388,16.3226598 16.327942,13.3325895 20.0044618,13.3325895 C23.6809816,13.3325895 26.6703848,16.3226598 26.6703848,20 C26.6703848,23.6773402 23.672058,26.6674105 20.0044618,26.6674105 Z M33.0686001,9.32500279 C33.0686001,10.6549146 31.9977691,11.717059 30.6770775,11.717059 C29.3474624,11.717059 28.2855549,10.6459891 28.2855549,9.32500279 C28.2855549,8.00401651 29.3563859,6.93294656 30.6770775,6.93294656 C31.9977691,6.93294656 33.0686001,8.00401651 33.0686001,9.32500279 Z M39.8594534,11.7527614 C39.7077524,8.54847707 38.9760178,5.71014169 36.6291132,3.37163896 C34.2911322,1.03313623 31.45343,0.301238425 28.2498606,0.140577931 C24.9481316,-0.0468593105 15.0518684,-0.0468593105 11.7501394,0.140577931 C8.55549359,0.292312842 5.71779141,1.02421064 3.37088678,3.36271338 C1.02398215,5.70121611 0.301171221,8.53955149 0.14054657,11.7438358 C-0.0468488567,15.0463015 -0.0468488567,24.944773 0.14054657,28.2472386 C0.29224763,31.4515229 1.02398215,34.2898583 3.37088678,36.628361 C5.71779141,38.9668638 8.54656999,39.6987616 11.7501394,39.8594221 C15.0518684,40.0468593 24.9481316,40.0468593 28.2498606,39.8594221 C31.45343,39.7076872 34.2911322,38.9757894 36.6291132,36.628361 C38.9670943,34.2898583 39.6988288,31.4515229 39.8594534,28.2472386 C40.0468489,24.944773 40.0468489,15.055227 39.8594534,11.7527614 Z M35.5939766,31.7906951 C34.8979364,33.5401093 33.5504741,34.8878724 31.7925265,35.5929934 C29.1600669,36.6372866 22.9135527,36.3962959 20.0044618,36.3962959 C17.0953709,36.3962959 10.8399331,36.628361 8.2163971,35.5929934 C6.46737312,34.8967979 5.11991076,33.5490349 4.41494702,31.7906951 C3.37088678,29.1576481 3.61182376,22.90974 3.61182376,20 C3.61182376,17.09026 3.37981037,10.8334263 4.41494702,8.20930492 C5.11098717,6.45989066 6.45844953,5.11212764 8.2163971,4.40700658 C10.8488567,3.36271338 17.0953709,3.60370412 20.0044618,3.60370412 C22.9135527,3.60370412 29.1689905,3.37163896 31.7925265,4.40700658 C33.5415505,5.10320205 34.8890128,6.45096508 35.5939766,8.20930492 C36.6380368,10.8423519 36.3970998,17.09026 36.3970998,20 C36.3970998,22.90974 36.6380368,29.1665737 35.5939766,31.7906951 Z" id="Shape"></path>
                </g>
            </g>
        </g>
    </g>
</svg>