<?xml version="1.0" encoding="UTF-8"?>
<svg width="657px" height="419px" viewBox="0 0 657 419" version="1.1" xmlns="http://www.w3.org/2000/svg" xmlns:xlink="http://www.w3.org/1999/xlink">
    <!-- Generator: Sketch 52.6 (67491) - http://www.bohemiancoding.com/sketch -->
    <title>Smash</title>
    <desc>Created with Sketch.</desc>
    <defs>
        <linearGradient x1="50%" y1="0%" x2="50%" y2="99.826138%" id="linearGradient-1">
            <stop stop-color="#FFD94F" offset="0%"></stop>
            <stop stop-color="#FFBF4E" offset="100%"></stop>
        </linearGradient>
        <path d="M57.2904269,0 C21.9427522,42.0897622 4.26891477,72.3182002 4.26891477,90.6853142 C4.26891477,118.235985 -16.101314,227 32.1531273,227 C64.3227548,227 105.879058,224.015598 156.822037,218.046794 C161.16298,153.058722 161.16298,113.64689 156.822037,99.8112983 C152.481095,85.9757064 144.109277,63.1613024 131.706584,31.3680864 L57.2904269,0 Z" id="path-2"></path>
        <path d="M57.2904269,0 C21.9427522,42.0897622 4.26891477,72.3182002 4.26891477,90.6853142 C4.26891477,118.235985 -16.101314,227 32.1531273,227 C64.3227548,227 105.879058,224.015598 156.822037,218.046794 C161.16298,153.058722 161.16298,113.64689 156.822037,99.8112983 C152.481095,85.9757064 144.109277,63.1613024 131.706584,31.3680864 L57.2904269,0 Z" id="path-4"></path>
        <path d="M41.9801018,24.4279187 C34.0731488,13.3889826 19.9801018,31.7107108 8.98010178,7.4763989 C1.98010178,-7.75791303 -2.01989822,43.9153082 34.9801018,43.7751273 C48.3138458,40.4763989 47.0731488,31.5383468 41.9801018,24.4279187 Z" id="path-6"></path>
        <path d="M41.9801018,24.4279187 C34.0731488,13.3889826 19.9801018,31.7107108 8.98010178,7.4763989 C1.98010178,-7.75791303 -2.01989822,43.9153082 34.9801018,43.7751273 C48.3138458,40.4763989 47.0731488,31.5383468 41.9801018,24.4279187 Z" id="path-8"></path>
        <linearGradient x1="50%" y1="-8.15320034e-15%" x2="9.71666613%" y2="80.0077849%" id="linearGradient-10">
            <stop stop-color="#FFDC5E" offset="0%"></stop>
            <stop stop-color="#FFDB5E" offset="59.1808165%"></stop>
            <stop stop-color="#FFC32C" offset="100%"></stop>
        </linearGradient>
        <path d="M43.088548,9.32006797 C38.088548,11.3815027 28.7690886,22.4491382 9.08854795,15.7520735 C-3.91145205,12.2856511 10.088548,32.9064753 16.088548,34.9064753 C22.088548,36.9064753 32.088548,41.7117001 45.088548,29.7626042 C58.088548,17.8135082 52.088548,4.34620367 43.088548,9.32006797 Z" id="path-11"></path>
        <linearGradient x1="50%" y1="-8.15320034e-15%" x2="12.5856953%" y2="90.6657421%" id="linearGradient-13">
            <stop stop-color="#FFDC5E" offset="0%"></stop>
            <stop stop-color="#FFDB5E" offset="59.1808165%"></stop>
            <stop stop-color="#FFC32C" offset="100%"></stop>
        </linearGradient>
        <path d="M39.0624339,2.00733717 C24.5016786,10.7814128 19.9795545,20.0307584 12.5138778,30.4357414 C11.0399783,40.5267086 5.74448208,61.4494815 2.53500328,76.6382683 C14.4257124,69.4716124 45.8133305,43.4937678 56.6105852,31.1288479 C55.7410336,0.296189116 41.5707975,1.73961548 39.0624339,2.00733717 Z" id="path-14"></path>
        <path d="M46.1724138,4.8984375 L84.3534483,20.0390625 C93.8247126,28.9453125 100.04023,39.9296875 103,52.9921875 C79.3218391,60.1171875 49.4281609,57.7421875 13.3189655,45.8671875 C4.43965517,33.9921875 -8.34836149e-14,20.3359375 -8.52651283e-14,4.8984375 C10.0632184,-1.6328125 25.454023,-1.6328125 46.1724138,4.8984375 Z" id="path-16"></path>
        <path d="M37.620996,19.7618702 C29.714043,8.72293411 15.620996,27.0446624 4.62099597,2.81035045 C-2.37900403,-12.4239615 -6.37900403,39.2492598 30.620996,39.1090789 C43.9547399,35.8103505 42.714043,26.8722983 37.620996,19.7618702 Z" id="path-18"></path>
        <path d="M40.088548,2.32006797 C35.088548,4.38150268 25.7690886,15.4491382 6.08854795,8.75207351 C-6.91145205,5.28565108 7.08854795,25.9064753 13.088548,27.9064753 C19.088548,29.9064753 29.088548,34.7117001 42.088548,22.7626042 C55.088548,10.8135082 49.088548,-2.65379633 40.088548,2.32006797 Z" id="path-20"></path>
        <path d="M49.8249759,6.2004423 C34.8249759,9.86617509 -1.17502409,34.7007312 6.82497591,52.7962134 C16.8249759,70.8916955 46.8249759,59.3763887 64.8249759,38.8133408 C72.8249759,9.58494594 52.8249759,5.88103022 49.8249759,6.2004423 Z" id="path-22"></path>
        <path d="M46.1724138,4.8984375 L84.3534483,20.0390625 C93.8247126,28.9453125 100.04023,39.9296875 103,52.9921875 C79.3218391,60.1171875 49.4281609,57.7421875 13.3189655,45.8671875 C4.43965517,33.9921875 -8.34836149e-14,20.3359375 -8.52651283e-14,4.8984375 C10.0632184,-1.6328125 25.454023,-1.6328125 46.1724138,4.8984375 Z" id="path-24"></path>
        <radialGradient cx="50%" cy="50%" fx="50%" fy="50%" r="33.060752%" gradientTransform="translate(0.500000,0.500000),rotate(90.000000),scale(1.000000,1.011333),translate(-0.500000,-0.500000)" id="radialGradient-26">
            <stop stop-color="#68B7DA" offset="0%"></stop>
            <stop stop-color="#D8D8D8" stop-opacity="0" offset="100%"></stop>
        </radialGradient>
        <rect id="path-27" x="0" y="0" width="213" height="142" rx="14"></rect>
        <filter x="-2.1%" y="-3.2%" width="104.2%" height="106.3%" filterUnits="objectBoundingBox" id="filter-28">
            <feOffset dx="0" dy="9" in="SourceAlpha" result="shadowOffsetInner1"></feOffset>
            <feComposite in="shadowOffsetInner1" in2="SourceAlpha" operator="arithmetic" k2="-1" k3="1" result="shadowInnerInner1"></feComposite>
            <feColorMatrix values="0 0 0 0 0.0373144989   0 0 0 0 0.349737758   0 0 0 0 0.626913265  0 0 0 1 0" type="matrix" in="shadowInnerInner1"></feColorMatrix>
        </filter>
        <path d="M72.5418044,64 L96.6766177,144.272427 C96.8451042,144.832813 96.9307069,145.414833 96.9307069,146 C96.9307069,149.313708 94.2444154,152 90.9307069,152 L8.17840625,152 C7.56742082,152 6.96001961,151.906677 6.37721483,151.72326 C3.2163454,150.72849 1.46037531,147.359678 2.45514586,144.198809 L27.6948512,64 L10,64 C4.4771525,64 6.76353751e-16,59.5228475 0,54 L0,10 C-6.76353751e-16,4.4771525 4.4771525,1.01453063e-15 10,0 L89,0 C94.5228475,-1.01453063e-15 99,4.4771525 99,10 L99,54 C99,59.5228475 94.5228475,64 89,64 L72.5418044,64 Z" id="path-29"></path>
        <path d="M37.620996,19.7618702 C29.714043,8.72293411 15.620996,27.0446624 4.62099597,2.81035045 C-2.37900403,-12.4239615 -6.37900403,39.2492598 30.620996,39.1090789 C43.9547399,35.8103505 42.714043,26.8722983 37.620996,19.7618702 Z" id="path-31"></path>
    </defs>
    <g id="Site" stroke="none" stroke-width="1" fill="none" fill-rule="evenodd">
        <g id="Smash" transform="translate(0.000000, -10.000000)">
            <g id="Group-18" transform="translate(74.000000, 69.000000)">
                <g id="Path-53">
                    <mask id="mask-3" fill="white">
                        <use xlink:href="#path-2"></use>
                    </mask>
                    <use id="Mask" fill="url(#linearGradient-1)" xlink:href="#path-2"></use>
                </g>
            </g>
            <g id="Group-8" transform="translate(420.500000, 159.000000) scale(-1, 1) translate(-420.500000, -159.000000) translate(184.000000, 10.000000)">
                <g id="Group-17" transform="translate(74.000000, 57.000000)">
                    <g id="Group-14">
                        <g id="Path-40">
                            <mask id="mask-5" fill="white">
                                <use xlink:href="#path-4"></use>
                            </mask>
                            <use id="Mask" fill="url(#linearGradient-1)" xlink:href="#path-4"></use>
                        </g>
                    </g>
                </g>
                <g id="Group-12" transform="translate(186.000000, 1.000000)">
                    <g id="Path-39">
                        <mask id="mask-7" fill="white">
                            <use xlink:href="#path-6"></use>
                        </mask>
                        <use id="Mask" fill="#F5FAFF" transform="translate(24.961755, 24.220730) scale(-1, 1) rotate(15.000000) translate(-24.961755, -24.220730) " xlink:href="#path-6"></use>
                        <path d="M5.05944416,13.4420756 C7.29332403,11.4123982 14.7964743,40.2699861 39.5135507,32.7246363 C55.9916016,27.694403 50.6006921,31.4528576 23.340822,44 C8.6565624,33.9189063 2.56276977,23.7329315 5.05944416,13.4420756 Z" fill="#D7E6F4" mask="url(#mask-7)" transform="translate(26.670411, 28.669760) scale(-1, 1) translate(-26.670411, -28.669760) "></path>
                    </g>
                </g>
                <g id="Group-12-Copy" transform="translate(448.000000, 24.500000) scale(-1, 1) translate(-448.000000, -24.500000) translate(423.000000, 0.000000)">
                    <g id="Path-39">
                        <mask id="mask-9" fill="white">
                            <use xlink:href="#path-8"></use>
                        </mask>
                        <use id="Mask" fill="#F5FAFF" transform="translate(24.961755, 24.220730) scale(-1, 1) rotate(15.000000) translate(-24.961755, -24.220730) " xlink:href="#path-8"></use>
                        <path d="M5.05944416,13.4420756 C7.29332403,11.4123982 14.7964743,40.2699861 39.5135507,32.7246363 C55.9916016,27.694403 50.6006921,31.4528576 23.340822,44 C8.6565624,33.9189063 2.56276977,23.7329315 5.05944416,13.4420756 Z" fill="#D7E6F4" mask="url(#mask-9)" transform="translate(26.670411, 28.669760) scale(-1, 1) translate(-26.670411, -28.669760) "></path>
                    </g>
                </g>
                <path d="M224.759421,28.8738342 C219.658386,30.670764 209.772463,41.2354889 190.469391,33.5176024 C177.668626,29.3755631 190.570229,50.7008305 196.457334,53.0121054 C202.34444,55.3233802 212.079249,60.6453792 225.6868,49.3930265 C239.294351,38.1406738 234.007399,24.37781 224.759421,28.8738342 Z" id="Path-5-Copy-3" fill="#FBDB65" transform="translate(209.473968, 42.154201) scale(-1, 1) rotate(-32.000000) translate(-209.473968, -42.154201) "></path>
                <path d="M128.17787,76.7413023 C123.63019,69.4285729 121,60.774711 121,51.5 C121,25.2664744 143.042617,9 169,9 C194.957383,9 215,25.2664744 215,51.5 C215,54.9602023 214.633909,58.3339898 213.938735,61.5839595 C218.202153,68.3589712 222.046618,72.6509689 225.472128,74.4599527 C231,77.3791758 222.112348,117.561505 176.556174,105.346202 C150.413048,98.3362581 134.286947,88.8012931 128.177873,76.7413071 Z" id="Combined-Shape-Copy" fill="url(#linearGradient-10)"></path>
                <g id="Path-52" transform="translate(86.000000, 28.000000)">
                    <mask id="mask-12" fill="white">
                        <use xlink:href="#path-11"></use>
                    </mask>
                    <use id="Mask" fill="#FBDB65" transform="translate(28.166872, 22.912445) rotate(-20.000000) translate(-28.166872, -22.912445) " xlink:href="#path-11"></use>
                    <path d="M7.74395134,24.322046 C19.4747655,29.0193133 28.3988773,31.3679469 34.5162867,31.3679469 C41.1829533,31.3679469 41.1829533,33.0346135 34.5162867,36.3679469 C23.84962,44.9584779 16.1829533,45.8781195 11.5162867,39.1268717 C8.16483701,34.278343 6.01683893,30.1393129 5.07229246,26.7097815 L5.07229874,26.7097798 C4.77900448,25.6448646 5.40452682,24.5438183 6.46944199,24.2505241 C6.89068564,24.134507 7.33833272,24.1596277 7.74395134,24.322046 Z" fill="#FF681E" mask="url(#mask-12)" transform="translate(22.258143, 33.880998) scale(-1, 1) translate(-22.258143, -33.880998) "></path>
                </g>
                <g id="Group-6-Copy" transform="translate(0.000000, 259.000000)">
                    <path d="M83,6.39488462e-14 C79.6666667,7.33333333 67,11.3333333 45,12 C35.9671356,12 10.1494343,10.0005315 3,15 C-1.7229364,18.302663 -5,32 35,38 C83,44 59,5 46,3 C47.785536,11 44,21 52,29 C60,37 8,31 10,21 C14.7274708,14.1868803 54,26 86,11 C99.3333333,3.66666667 98.3333333,6.39488462e-14 83,6.39488462e-14 Z" id="Path-42" fill="#FBDB65"></path>
                    <path d="M46,3 C48,13 43,22 53,30 C55,31 63,31 64,26 C63,12 49,3 46,3 Z" id="Path-43" fill="#FF681E"></path>
                </g>
                <path d="M173,62.4232015 C175.209139,62.4232015 177,60.1634521 177,57.37591 C177,55.8367298 176,52 173,52 C170,52 169,54.588368 169,57.37591 C169,60.1634521 170.790861,62.4232015 173,62.4232015 Z" id="Oval-Copy-14" fill="#FF681E"></path>
                <path d="M205.5,61.4232015 C207.432997,61.4232015 209,59.2158058 209,56.4928452 C209,54.9893245 208,52 205.5,52 C203.558493,52 202,53.7698846 202,56.4928452 C202,59.2158058 203.567003,61.4232015 205.5,61.4232015 Z" id="Oval-Copy-15" fill="#FF681E" transform="translate(205.500000, 56.711601) scale(-1, 1) translate(-205.500000, -56.711601) "></path>
                <path d="M191.018651,143.047339 C175.969387,138.98422 153.732487,138.98422 138.683222,143.047339 C129.608611,145.497373 124.396541,158.934061 123.047012,183.357402 L123.046971,183.357399 C122.812937,187.592868 126.056741,191.216115 130.292209,191.450149 C130.433326,191.457946 130.574632,191.461847 130.715965,191.461847 L133.077406,191.461847 C136.599141,191.461847 139.907962,189.775607 141.97756,186.926153 L148.993542,177.266442 C149.746123,176.230277 150.949331,175.617099 152.229962,175.617099 L178.167754,175.617099 C179.494974,175.617099 180.735768,176.27542 181.479904,177.374408 L187.448975,186.189919 C189.681384,189.486884 193.403765,191.461847 197.385426,191.461847 L199.87116,191.461847 C204.218316,191.461847 207.742382,187.937781 207.742382,183.590625 C207.742382,183.235356 207.718329,182.880494 207.670389,182.528474 C204.470675,159.033205 198.920087,145.872828 191.018651,143.047339 Z" id="Path-38-Copy" fill="#003A70"></path>
                <path d="M120.265728,130.287218 C105.265728,133.952951 69.2657276,158.787507 77.2657276,176.882989 C87.2657276,194.978471 117.265728,183.463165 135.265728,162.900117 C143.265728,133.671722 123.265728,129.967806 120.265728,130.287218 Z" id="Path-39-Copy-2" fill="url(#linearGradient-13)" transform="translate(106.630630, 158.076358) rotate(26.000000) translate(-106.630630, -158.076358) "></path>
                <g id="Group-10" transform="translate(217.000000, 119.000000)">
                    <g id="Path-50">
                        <mask id="mask-15" fill="white">
                            <use xlink:href="#path-14"></use>
                        </mask>
                        <use id="Mask" fill="#FBDB65" transform="translate(29.572794, 39.277532) scale(-1, 1) rotate(-177.000000) translate(-29.572794, -39.277532) " xlink:href="#path-14"></use>
                        <path d="M48.2911278,46 C36.4759636,63.3333333 32.8092969,77.3333333 37.2911278,88 C44.013874,104 62.6966772,91.2974095 66.2911278,79 C77.6244611,74.3333333 71.6244611,63.3333333 48.2911278,46 Z" fill="#FF681E" mask="url(#mask-15)" transform="translate(53.645564, 70.755462) scale(-1, 1) translate(-53.645564, -70.755462) "></path>
                    </g>
                </g>
                <g id="Group-9" transform="translate(72.000000, 236.000000)">
                    <g id="Path-50">
                        <mask id="mask-17" fill="white">
                            <use xlink:href="#path-16"></use>
                        </mask>
                        <use id="Mask" fill="url(#linearGradient-10)" xlink:href="#path-16"></use>
                        <path d="M87.1261791,14 C73.6806866,34 69.1988557,49.3333333 73.6806866,60 C78.1625174,70.6666667 89.8291841,67.1741808 108.680687,49.5225425 L87.1261791,14 Z" fill="#FF681E" mask="url(#mask-17)"></path>
                    </g>
                </g>
                <path d="M206.39674,215.828519 C195.46558,242.832037 190,266.769899 190,287.642105 C207,299.452632 222.781233,299.452632 241,287.642105 C241,272.056566 239.106021,248.315659 235.318064,216.419384 L235.318085,216.419382 C234.544538,209.905772 229.02169,205 222.462309,205 L222.462309,205 C215.401328,205 209.046232,209.283472 206.396761,215.828528 Z" id="Path-41-Copy" fill="#FBDB65"></path>
                <g id="Group-11" transform="translate(95.000000, 6.000000)">
                    <g id="Path-39">
                        <mask id="mask-19" fill="white">
                            <use xlink:href="#path-18"></use>
                        </mask>
                        <use id="Mask" fill="#F5FAFF" xlink:href="#path-18"></use>
                        <path d="M-3,8 C-0.0175260868,5.57902587 10,40 43,31 C65,25 59.3333333,29.6666667 26,45 C3.33333333,32.6081391 -6.33333333,20.2748057 -3,8 Z" fill="#D7E6F4" mask="url(#mask-19)"></path>
                    </g>
                </g>
                <path d="M192,81.1482036 C195.333333,78.0577836 198.666667,78.3017877 202,81.8802159 C201.333333,83.7635355 198,83.5195314 192,81.1482036 Z" id="Path-45-Copy-2" fill="#FF681E"></path>
                <path d="M214.188497,79.6595317 C217.52183,76.5691117 220.855164,76.8131158 224.188497,80.3915441 C223.52183,82.2748636 220.188497,82.0308595 214.188497,79.6595317 Z" id="Path-45-Copy-3" fill="#FF681E" transform="translate(219.188497, 79.576675) scale(-1, 1) rotate(6.000000) translate(-219.188497, -79.576675) "></path>
                <path d="M184.636364,92 C180.916898,92 178.420801,93.4357021 177.148074,96.3071064 C175,104.426826 192,104.426826 192,98.180229 C192,96.2659595 194,94.2058832 198,92 L184.636364,92 Z" id="Path-47-Copy" fill="#FF681E"></path>
                <path d="M163.832168,44.380924 C165.724123,42.5117328 167.974661,41.6218672 170.583784,41.7113274 C173.193551,41.8008096 175.114355,42.7000846 176.346197,44.4091523 L176.346209,44.4091438 C176.468934,44.5794127 176.534973,44.7839799 176.534973,44.9938675 L176.534973,45.6857347 C176.534973,45.9397525 176.329051,46.1456746 176.075033,46.1456746 C175.96943,46.1456746 175.867043,46.1093345 175.78507,46.0427581 C173.771274,44.4072484 171.874112,43.6101082 170.093568,43.651359 C168.312849,43.6926139 166.384523,44.4989608 164.308591,46.0703998 L164.308582,46.0703891 C164.096144,46.2312009 163.793564,46.189349 163.632753,45.9769103 C163.569307,45.8930966 163.534973,45.7908539 163.534973,45.6857347 L163.534986,45.0922886 C163.534986,44.8249775 163.64201,44.568794 163.832168,44.380924 Z" id="Rectangle-Copy-4" fill="#FF681E" transform="translate(170.034973, 43.936697) rotate(-376.000000) translate(-170.034973, -43.936697) "></path>
                <path d="M202.700323,44.6845027 C204.283133,43.2870573 206.158546,42.6224181 208.32656,42.6905849 C210.487715,42.7585362 212.09051,43.428311 213.134944,44.6999095 L213.134937,44.6999149 C213.281867,44.8788014 213.362181,45.1031231 213.362181,45.3346152 L213.362181,45.7744679 C213.362181,45.9823625 213.19365,46.1508943 212.985755,46.1508943 C212.904385,46.1508943 212.825205,46.1245273 212.760079,46.075744 C211.044041,44.7903201 209.427935,44.1637129 207.911762,44.195924 C206.394934,44.2281489 204.751535,44.8619935 202.981563,46.0974578 L202.981585,46.0974892 C202.803185,46.2220146 202.557616,46.1783408 202.43309,45.9999411 C202.386932,45.9338133 202.362181,45.855112 202.362181,45.7744679 L202.362164,45.4341543 C202.362164,45.1473392 202.485315,44.8743305 202.700323,44.6845027 Z" id="Rectangle-Copy-5" fill="#FF681E" transform="translate(207.862181, 44.417328) scale(-1, 1) rotate(-384.000000) translate(-207.862181, -44.417328) "></path>
            </g>
            <path d="M224.759421,40.8738342 C219.658386,42.670764 209.772463,53.2354889 190.469391,45.5176024 C177.668626,41.3755631 190.570229,62.7008305 196.457334,65.0121054 C202.34444,67.3233802 212.079249,72.6453792 225.6868,61.3930265 C239.294351,50.1406738 234.007399,36.37781 224.759421,40.8738342 Z" id="Path-5-Copy" fill="#FBDB65" transform="translate(209.473968, 54.154201) scale(-1, 1) translate(-209.473968, -54.154201) "></path>
            <path d="M128.17787,88.7413023 C123.63019,81.4285729 121,72.774711 121,63.5 C121,37.2664744 142.042617,23.3395194 168,23.3395194 C193.957383,23.3395194 215,37.2664744 215,63.5 C215,66.9602023 214.633909,70.3339898 213.938735,73.5839595 C218.202153,80.3589712 222.046618,84.6509689 225.472128,86.4599527 C231,89.3791758 222.112348,129.561505 176.556174,117.346202 C150.413048,110.336258 134.286947,100.801293 128.177873,88.7413071 Z" id="Combined-Shape" fill="url(#linearGradient-10)"></path>
            <g id="Group-16" transform="translate(89.000000, 47.000000)">
                <g id="Path-52">
                    <mask id="mask-21" fill="white">
                        <use xlink:href="#path-20"></use>
                    </mask>
                    <use id="Mask" fill="#FBDB65" transform="translate(25.166872, 15.912445) rotate(3.000000) translate(-25.166872, -15.912445) " xlink:href="#path-20"></use>
                    <path d="M2,15 C10,21.6666667 17.3333333,25 24,25 C30.6666667,25 30.6666667,26.6666667 24,30 C15.3333333,33.3333333 8,33.3333333 2,30 C-4,26.6666667 -4,21.6666667 2,15 Z" fill="#FF681E" mask="url(#mask-21)"></path>
                </g>
            </g>
            <g id="Group-6" transform="translate(0.000000, 271.000000)">
                <path d="M83,6.39488462e-14 C79.6666667,7.33333333 67,11.3333333 45,12 C35.9671356,12 10.1494343,10.0005315 3,15 C-1.7229364,18.302663 -5,32 35,38 C83,44 59,5 46,3 C47.785536,11 44,21 52,29 C60,37 8,31 10,21 C14.7274708,14.1868803 54,26 86,11 C99.3333333,3.66666667 98.3333333,6.39488462e-14 83,6.39488462e-14 Z" id="Path-42" fill="#FBDB65"></path>
                <path d="M46,3 C48,13 43,22 53,30 C55,31 63,31 64,26 C63,12 49,3 46,3 Z" id="Path-43" fill="#FF681E"></path>
            </g>
            <path d="M97,178 C98.9946256,187.778242 111.453288,190.222802 134.375988,185.333681 C157.298688,180.44456 152.213519,174.333333 119.120483,167 L97,178 Z" id="Path-51" fill="#FF681E"></path>
            <path d="M173,75.4232015 C175.209139,75.4232015 177,72.5130523 177,68.9232015 C177,66.9410152 173,63.4232015 172,62.4232015 C170.118665,60.5418661 169,65.3333506 169,68.9232015 C169,72.5130523 170.790861,75.4232015 173,75.4232015 Z" id="Oval" fill="#FF681E"></path>
            <path d="M205.5,74.4232015 C203.567003,74.4232015 202,71.5130523 202,67.9232015 C202,65.9410152 205.5,62.4232015 206.375,61.4232015 C208.021168,59.5418661 209,64.3333506 209,67.9232015 C209,71.5130523 207.432997,74.4232015 205.5,74.4232015 Z" id="Oval-Copy-13" fill="#FF681E"></path>
            <path d="M207.952915,136.919173 C192.903651,132.856055 170.66675,132.856055 155.617486,136.919173 C146.542875,139.369208 141.330805,152.805895 139.981276,177.229236 L139.981235,177.229234 C139.747201,181.464702 142.991004,185.087949 147.226473,185.321983 C147.36759,185.32978 147.508896,185.333681 147.650228,185.333681 L150.011669,185.333681 C153.533405,185.333681 156.842226,183.647441 158.911824,180.797987 L165.927806,171.138277 C166.680387,170.102112 167.883595,169.488933 169.164226,169.488933 L195.102017,169.488933 C196.429238,169.488933 197.670031,170.147254 198.414168,171.246243 L204.383239,180.061753 C206.615647,183.358718 210.338028,185.333681 214.31969,185.333681 L216.805423,185.333681 C221.152579,185.333681 224.676645,181.809615 224.676645,177.462459 C224.676645,177.10719 224.652593,176.752328 224.604652,176.400308 C221.404938,152.90504 215.85435,139.744662 207.952915,136.919173 Z" id="Path-38" fill="#003A70"></path>
            <g id="Path-50" transform="translate(87.000000, 126.000000)">
                <mask id="mask-23" fill="white">
                    <use xlink:href="#path-22"></use>
                </mask>
                <use id="Mask" fill="url(#linearGradient-10)" transform="translate(36.189878, 33.989582) rotate(11.000000) translate(-36.189878, -33.989582) " xlink:href="#path-22"></use>
            </g>
            <path d="M242.779473,137.02148 C230.237655,140.093988 200.137292,160.909573 206.826262,176.076667 C215.187474,191.24376 240.271109,181.591973 255.321291,164.35664 C262.01026,139.85827 245.287837,136.753758 242.779473,137.02148 Z" id="Path-39-Copy" fill="#FBDB65" transform="translate(231.378879, 160.313509) scale(-1, 1) rotate(-5.000000) translate(-231.378879, -160.313509) "></path>
            <g id="Path-50" transform="translate(72.000000, 248.000000)">
                <mask id="mask-25" fill="white">
                    <use xlink:href="#path-24"></use>
                </mask>
                <use id="Mask" fill="url(#linearGradient-10)" xlink:href="#path-24"></use>
                <path d="M86.1261791,16 C72.6806866,36 68.1988557,51.3333333 72.6806866,62 C77.1625174,72.6666667 88.8291841,69.1741808 107.680687,51.5225425 L86.1261791,16 Z" fill="#FF681E" mask="url(#mask-25)"></path>
                <path d="M430.126179,5 C416.680687,25 412.198856,40.3333333 416.680687,51 C421.162517,61.6666667 432.829184,58.1741808 451.680687,40.5225425 L430.126179,5 Z" id="Path-50-Copy" fill="#FF981E" mask="url(#mask-25)"></path>
            </g>
            <path d="M206.39674,227.828519 C195.46558,254.832037 190,278.769899 190,299.642105 C207,311.452632 222.781233,311.452632 241,299.642105 C241,284.056566 239.106021,260.315659 235.318064,228.419384 L235.318085,228.419382 C234.544538,221.905772 229.02169,217 222.462309,217 L222.462309,217 C215.401328,217 209.046232,221.283472 206.396761,227.828528 Z" id="Path-41" fill="#FBDB65"></path>
            <path d="M192,93.1482036 C195.333333,90.0577836 198.666667,90.3017877 202,93.8802159 C201.333333,95.7635355 198,95.5195314 192,93.1482036 Z" id="Path-45" fill="#FF681E"></path>
            <path d="M224.169767,91.1364355 C218.450507,94.1219437 215.16094,94.7130394 214.301065,92.9097224 C217.24209,89.002469 220.531658,88.4113734 224.169767,91.1364355 Z" id="Path-45-Copy" fill="#FF681E"></path>
            <path d="M188.077562,102 C183.410896,105.333333 180.744229,108 180.077562,110 C179.077562,115 188.077562,116.340519 188.077562,111 C188.077562,108.453486 189.077562,106.726162 191.077562,105.818029 L188.077562,102 Z" id="Path-47" fill="#FF681E"></path>
            <path d="M204.16079,107.856129 C199.499253,108.288262 196.203486,108.288262 194.273489,107.856129 C191.213543,107.170996 188.988384,105.685133 186.32017,105 C185.207471,105 187.273489,102.953852 188.273489,102 C188.960828,102.323114 191.805871,104.900675 196.273489,105.809981 C199.05741,106.3766 201.273489,106.043545 206.273489,105.809981 C207.372075,105.758663 206.667842,106.440712 204.16079,107.856129 Z" id="Path-46" fill="#FF681E"></path>
            <path d="M171.144706,56.7313537 L178.646688,64.7762444 C179.023345,65.1801599 179.001248,65.8129392 178.597332,66.1895965 C178.193417,66.5662538 177.560638,66.5441566 177.18398,66.1402411 L169.681998,58.0953504 C169.305341,57.6914349 169.327438,57.0586557 169.731354,56.6819984 C170.135269,56.3053411 170.768048,56.3274382 171.144706,56.7313537 Z" id="Rectangle" fill="#FF681E"></path>
            <path d="M207.963959,57.0193337 L201.191683,65.687452 C200.851663,66.1226583 200.223217,66.1998217 199.788011,65.8598013 C199.352804,65.5197808 199.275641,64.8913354 199.615661,64.456129 L206.387938,55.7880108 C206.727958,55.3528044 207.356404,55.275641 207.79161,55.6156615 C208.226816,55.9556819 208.30398,56.5841274 207.963959,57.0193337 Z" id="Rectangle-Copy-2" fill="#FF681E"></path>
            <path d="M506,69 C502,76.3333333 502,80 506,80 C510,80 510,76.3333333 506,69 Z" id="Path-48" fill="#F5FAFF"></path>
            <circle id="LIGHT" fill="url(#radialGradient-26)" cx="322.5" cy="236.5" r="236.5"></circle>
            <g id="Group-13" transform="translate(214.000000, 217.000000)">
                <g id="Rectangle">
                    <use fill="#003A70" fill-rule="evenodd" xlink:href="#path-27"></use>
                    <use fill="black" fill-opacity="1" filter="url(#filter-28)" xlink:href="#path-27"></use>
                </g>
                <g id="Group-15" transform="translate(60.000000, 60.000000)">
                    <mask id="mask-30" fill="white">
                        <use xlink:href="#path-29"></use>
                    </mask>
                    <use id="Mask" fill="#00274A" xlink:href="#path-29"></use>
                    <g mask="url(#mask-30)" fill="#001D36">
                        <g transform="translate(6.000000, 29.000000)">
                            <polygon id="Path-44" transform="translate(74.550389, 21.196510) rotate(-1.000000) translate(-74.550389, -21.196510) " points="62.071348 1.77925337 61.8058471 16.9897911 67.1437502 38.2757246 87.2949301 40.6137663"></polygon>
                            <polygon id="Path-44-Copy" transform="translate(14.774564, 21.083128) scale(-1, 1) rotate(-5.000000) translate(-14.774564, -21.083128) " points="3.20843949 1.53968199 1.93677185 16.0749096 7.46117675 38.2885325 27.6123567 40.6265741"></polygon>
                        </g>
                    </g>
                </g>
            </g>
            <rect id="Rectangle-Copy-3" fill="#003A70" x="436" y="362" width="95" height="57" rx="3"></rect>
            <rect id="Rectangle" fill="#00274A" x="430" y="368" width="106" height="60" rx="5"></rect>
            <g id="Group-11-Copy" transform="translate(97.000000, 19.000000)">
                <g id="Path-39">
                    <mask id="mask-32" fill="white">
                        <use xlink:href="#path-31"></use>
                    </mask>
                    <use id="Mask" fill="#F5FAFF" xlink:href="#path-31"></use>
                    <path d="M-3,8 C-0.0175260868,5.57902587 10,40 43,31 C65,25 59.3333333,29.6666667 26,45 C3.33333333,32.6081391 -6.33333333,20.2748057 -3,8 Z" fill="#D7E6F4" mask="url(#mask-32)"></path>
                </g>
            </g>
        </g>
    </g>
</svg>