<?xml version="1.0" encoding="UTF-8"?>
<svg id="Layer_1" data-name="Layer 1" xmlns="http://www.w3.org/2000/svg" viewBox="0 0 4047.92 3491.05">
  <defs>
    <style>
      .cls-1 {
        fill: #ffa241;
      }

      .cls-2 {
        fill: #01595b;
      }

      .cls-3 {
        fill: #f15a24;
      }
    </style>
  </defs>
  <g id="Layer_3" data-name="Layer 3">
    <path class="cls-2" d="m505.57,2425.4c-197.1,188.67-212.41,509.35-33.17,694.47,43.57,72.19,89,174.28,148,236.94,165.41,179.11,429.02,145.63,636.79,89.45,180.26-37.44,434.47-199.18,599.29-265.11,275.44-73.19,483.99,80.41,715.57-134.57,80.82-40.06,219.69-363.96,264.25-330.39,191.76,66.26,420.23,55.5,611.98-9.16,200.36-52.61,551.48-325,506.58-551.24-10.69-133.51-355.59-102.68-460.85-135.08-88.15-21.57-181.76-32.27-262.41-76.07,50.06-23.3,99.05-43.47,149.65-64.86,520.37-199.26,834.38-346.01,572.39-963.04-80.1-160.94-223.34-260.33-366.44-357.91-288-196.4-603.66-333.13-927.32-451.53-220.82-48.84-465.91-180.42-665.86-6.42-20.94,23.59-33.18-14.07-50.34-24.37C1862.38,11.62,1747.33-3.23,1646.08.55c-349.37,14.52-761.14,97.89-935.17,434.96-8.42-76.9,7.88-176.37-47.6-236.22-128.27-98.64-322.92,63.05-391.61,173.44-29.45,54.32-62.81,113.6-69.48,174.51-84.71,80-163.93,168.17-193.95,283.18-62.9,276.36,249.58,547.13,383.26,769.61,82.44,100.79,129.07,226.61,217.41,322.38-64.06,73.87-215.44,136.24-347.58,114.41-178.59-29.51-150.45,113.98-86.04,241.51,70.59,108.26,212.39,121.3,330.26,147.08Z"/>
  </g>
  <g id="Layer_2" data-name="Layer 2">
    <g>
      <path class="cls-3" d="m649.08,1709.42c16.66-27.45,54.91-20.31,75.12-44.76,2.83-3.39,7.44-6.25,11.73-7.3,10.94-2.66,18.46-9.94,26.7-16.73,34.84-28.69,73.6-50.65,116.76-63.94,230.46-77.25,475.96-13.32,713.25-22.05,168.56-2.23,336.65-19.21,504.85-29.82,22.5-1.84,22.89-19.97,53.4-18.05,52.58,2.92,105.18,4.43,157.86,5.22,88.63,3.33,175.4,30.13,254.87,68.57,10.84,5.03,21.91,9.79,33.28,13.41,78.8,23.73,151.78,61.3,224.79,98.61,33.93,15.99,72.46,17.49,109.19,21.48,33.34,3.03,35.09,4.14,57.66,27.5,39.39-4.28,69.78-34.7,108.44-6.39,25.51-14.99,49.59-13.05,71.43,7.76,108.79-48.73,201.79-125.66,312.75-170.31,55.78-25.33,112.64-48.29,169.03-72.28,67.06-24.37,133.92-45.05,163.73-113.86,59.46,10.57,97.12-178.89,80.12-138.2,33.26-79.59,43.43-8.87,43.46,76.92.01,28.6-17.31,66.66-25.19,88.16-28.27,77.09-91.06,138.31-158.99,182.1-199.85,123.34-411.53,224.96-633.93,300.43-100.63-54.51-217.69-91.37-332.45-68.49-8.23,2.43-15.64,1.38-22.96-3.04-19.38-11.71-39.15-22.79-58.27-34.9-31.83-19.26-110.39-38.17-147.96-50.64-76.06-25.26-140.84-32.49-217.53-38.81-112.85-9.3-190.98-21.45-337.02-23.49,0,0-70.74-3.74-126.22,3.72-94.32,10.9-189.16,2.24-283.55-2.75-156.3-9.42-312.96-23.89-469.04-3.56-82.95,8.75-165.73,24.23-238.63,66.81-21.09,9.75-183.27,96.53-187.75,100.2-26.55,21.73-38.67-17.53-69.38-47.86-9.8-9.44-17-20.26-25.12-30.69-4.14-5.32-4.88-10.39-2.73-16.69,6.94-22.48,25.73-33.64,48.29-36.26v-.03Z"/>
      <path class="cls-3" d="m1206.47,3334.29c-48.01,12-86.89,29.17-135.45,40.39-128.93,24.17-279.15,4.86-374.9-92.31-45.67-44.89-67.51-106.52-99.45-160.81-15.94-30.27-38.92-55.57-61.27-81.18-84.17-101.45-125.55-247.79-92.15-373.2,66.84-250.98,93.13-58.22,98.87-.26.85,7.87.96,16.17-.55,23.89-9.16,46.75-4.56,92.86,5.4,138.79,11.15,54.35,28.6,108.21,67.68,149.03,43.9,45.58,72.99,100.49,103.45,154.91,12.96,3.35,26.15,9.37,34.6,20.35,35.65,47.2,77.06,92.53,134.38,112.19,88.83,28.63,183.65.87,270-24.69,36.08-12.31,69.3-39.49,109.06-33.54,7.52.91,14.36-.15,21.42-2.83,64.88-24.57,127.82-53.4,188.89-86.26,150.02-94.02,315.73-182.7,496.64-187.55,9.61.29,19.89,2.67,28.91,6.32,25.18,13.56,53.34,15.14,80.34,20.8,1.34,17.59-1.02,35.23-9.97,74.12-60.9-1.48-121.79-4.4-182.13,7.45-86.87,20.02-170,55.28-248.95,96.42-77.9,46.54-154.05,95.37-238.5,129.57"/>
      <path class="cls-3" d="m3874.86,2144.56c14.91,7.45-69.08,120.91-147.75,188.92-120.51,104.17-229.05,183.97-450.35,267.23-173.47,62.99-383.39,73.12-543.64-30.15-8.82,5.91-7.84,17.87-15.76,25.78-48.47-13.64-86.5-29.92-145.32-54.83,1.16-17.04,10.09-40.82,3.44-57.38,9.2,2.35,16.56,4.24,24.76,6.34,1.43-33.48-5.41-63.9-15.37-95.1-6.29-17.15-7.42-35.13-5.2-53.23,2.09-53.49,73.26-75.47,98.81-25.36,4.16,8.37,7.9,16.53,14.6,23.39,12.68,14.76,11.38,36.71,18.45,54.29,3.5,11.01,10.01,19.97,19.54,27.01,135.46,109.9,288.31,89.34,444.99,46.92,81.83-17.37,163.36-41.99,235.03-86.14,69.25-43.68,141.53-82.9,206.47-133.03,57.84-42.39,185.79-142.15,257.32-104.67h-.02Z"/>
      <path class="cls-3" d="m1743.19,210.75c5.12-21.97,65.65-49,68.77-50.35,9.38,6.05,55.46-23.3,63-17,9.36,7.82,20.97,15.15,18.27,31.74-88.19,67.57-170.05,146.22-237.13,234.89-92.11,107.06-189.36,216.83-300.5,304.68-43.19,30.07-85.52,61.37-128.35,91.95-148.99,119.15-306.42,101.59-460.01,1.58-8.75-5.93-13.43-13.42-14.09-24.72-1.01-17.24-4.27-34.35-6.42-51.53-2.1-15.17,6.79-7.23,12.96-22.77,48.41,66.07,135.38,83.58,212.47,92.09,11.2.79,22.56,1.16,33.27,5.94,4.01,1.79,9.1,1.56,13.7,1.55,131.56-12.69,229.47-126.05,315.76-216.28,125.83-137.33,239.81-293.7,408.31-381.74v-.03Z"/>
      <path class="cls-3" d="m2491.47,2700.29c28.24,10.49,139.25,33.77,166.36,45.79,1.7,30.97-68.75,111.65-91.82,134.59-53.14,53.22-110.44,104.47-183.2,128.4-52.83,17.31-105.78,40.38-162.49,37.21-21.64-1.94-43.6.16-64.67-5.49.92-35.55,12.18-101.72,15.81-138.51,12.24-1.07,11.41,58.33,22.65,57.59,9.51-.62,18.67-2.32,26.07-8.66,4.43-3.79,9.35-4.57,14.76-4.92,17.38-1.1,34.29-4.58,50.79-10.17,21.44-7.26,43.01-14.13,64.37-21.6,87.47-34.05,157.27-106.45,205.35-185.69,3.15-4.96-70.72-25.27-63.98-28.55h0Z"/>
      <path class="cls-3" d="m204.77,2105.59c24.43-2.15,48,4.48,72.17,1.38,6.21,14.03,6.18,27.86,18.23,37.96,36.16,35.98,79.46,52.67,130.45,47.46,69.2-6.91,139.51-23.02,208.44-5.34,20.93,7.18,61.49,13.09,53.42,43.57-5.71,18.26-25.28,73.19-50.49,61.92-29.35-10.7-59.2-16.12-90.21-12.71-74.06,5.19-149.08,26.91-221.44-.11-39.7-14.69-84.87-47.78-111.55-82.09-20.56-26.43-26.01-58.54-9.05-92.04h.03Z"/>
    </g>
  </g>
  <g id="Layer_1-2" data-name="Layer 1">
    <g>
      <path class="cls-1" d="m114.75,1022.82c-33.66-40.21,26.5-19.7,27.71-60.99,0-.15,4.49-8.47,4.56-8.6,15.11-27.25,23.69-47.64,40.88-73.64.01-.02.03-.04.04-.06,20.34-35.25-35.31-63.86-52.33-26.71,0,.02-.02.04-.03.06-15.06,26.32-26.56,55.73-43.52,80.49-.45.65-1.46.53-1.73-.21-10.52-28.86-4.76-67.87-.23-99.45,0-.06.02-.12.04-.18,26.8-77.82,74.46-152.2,132.39-211.1.01-.01.03-.03.04-.04,25.01-29.57,18.07,39.27,23.78,57.73.11.37,0,.76-.28,1.01-19.69,17.69-33.11,40.42-44.44,64.15-20.12,36.48,35.74,64.69,52.51,25.95.04-.09.07-.2.08-.3,6.45-63.56,86.79,200.81,119.7,220.73.15.09.27.22.35.38,43.17,86.06,116.4,151.79,162.28,236.52.02.04.05.09.08.13,28.81,37.73-2.07-64.95-9.12-78.01-103.86-190.27-249.39-387.34-225.63-616.92,0-.06.02-.11.03-.17,30.17-110.13,83.8-222.78,183.02-285.96,260.16-165.58,90.78,501.13,195.58,609.01.01.01.03.03.04.04,257.37,313.04,720.11,11.04,919.31-230.03,175.95-194.95,324.3-448.21,599-511.15,138.46-30.49,268.49,41.57,400.36,74.43.02,0,.03,0,.05.01,278.01,85.99,539.61,219.63,791.61,363.64,203.85,119.24,439.55,230.74,501.91,480.44,0,.03.02.06.03.08,56.18,155.82,56.28,355.03-103.34,448.17-.03.02-.06.04-.09.06-146.26,112.08-327.84,166.88-495.7,236.32-210.44,87.05-205.92,68.21-358.09,35.75-.02,0-63.3-17.36-63.32-17.36-43.91-5.11-321.33-126.04-521.71-150.13-.02,0-.04,0-.06,0-204.09-38.55-409.11,2.31-614.1,4.73-307.25,18.68-600-85.95-882.18,63.71-.03.02-115.37,67.38-115.4,67.4-152.17,93.96-63.27,122.45-280.87-159.28-98.07-126.98-201.82-259.93-277.04-405.36M2289.17,196.91c-37.47-2.45-135.67,7.76-93.51,62.04.04.05.09.1.13.14,19.17,17.5,40.95-3.45,62.07-5.28,38.63-4.25,79.63,1.71,114.12,20.25,36.7,21.59,64.73-41.2,22.47-53.79-34.51-11.31-69.85-22.97-105.28-23.37Zm-711.63,625.34c38.79-14.75,167.83-123.52,128.23-163.88-.07-.07-.16-.14-.25-.19-51.26-28.37-69.57,65.83-109.27,86.21-33.72,18.91-87.27,60.78-19.3,77.9.2.05.4.04.59-.03Zm-462.3,295.87c.1-.03.21-.05.32-.04,51.54,2.48,101.67-24.87,137.41-58.43,30.22-24.45-8.2-71.43-37.69-44.98-.03.03-.06.06-.08.09-28.52,32.15-72.46,58.08-116.1,43.45-.11-.04-.23-.05-.35-.05-55.11,2.06-33.3,75.43,16.5,59.96Zm2559.72-224.09c103.31-29.24-67.97-129.79-111.58-137.29-.03,0-.07-.01-.1-.02-40.18-12.76-53.22,51.69-12.26,57.2.03,0,.06,0,.09,0,54.17,2.62,82.54,57.32,123.08,80.02.23.13.51.16.76.09Zm-2751.05,232.1c53.69,15.93,91.13-51.61,26.53-58.49-.08,0-.16,0-.24,0-41.22,5.65-87.89,5.52-121.93-22.31-6.53-6.03-15.26-7.94-24.21-5.37-.11.03-.22.09-.32.15-77.87,54.91,75.24,92.82,119.77,85.99.14-.02.27-.01.4.03Zm1191.95-838.24c-16.76-75.19-161.83,25.33-175.95,68.8,0,.03-.02.05-.03.08-16.43,35.2,41.25,60.18,53.86,22.22,17.13-58.82,116.72-42.64,122.14-90.74.01-.12,0-.24-.02-.36Zm546.45,94.04c.24.12.52.14.77.05,87.61-30.4-41.17-88.63-77.39-100.3-14.68-4.26-29.4-8.24-43.03-15.67-32.83-15.77-57.35,32.57-28.1,51.17.08.05.18.09.27.12,53.86,15.02,98.67,40.02,147.47,64.63Zm797.49,331.47c-18.93-57.62-94.74-80.09-148.58-93.98-.03,0-.06-.02-.1-.02-39.15-6.79-46.36,58.02-5.65,58.41,29.35.67,54.07,16.67,78.91,30.2.08.05.16.1.23.17,22.45,23.1,63.92,59.49,75.22,5.75.04-.17.03-.36-.03-.53Zm-1689.24-111.29c25.35-2,159.89-135.14,115.38-155.62-.06-.03-.11-.06-.16-.1-36.07-27.63-56.37,29.32-77.12,50.33-.03.03-.05.06-.07.09-21.48,29.29-113.86,82.81-38.4,105.26.12.04.25.05.37.04Zm2000.16,485.25c-1.47,87.63,120.62,47.04,9.43-133.04-.01-.02-.02-.04-.03-.06-16.29-32.55-67.89-6.73-52.28,26.26.02.05.05.1.08.15,21.47,31.58,41.28,69.18,42.8,106.63,0,.02,0,.04,0,.06Zm-709.99-588.29c-29.95-1.72-43.16,39.28-18.19,53.9.04.02.08.04.11.06,41.07,18.74,90.6,22.35,123.53,56.28.02.02.04.04.06.06,40.24,34.88,73.25-39.19,23.28-52.6-.13-.04-.26-.1-.37-.19-36.36-31.1-85.23-39.78-128.1-57.43-.1-.04-.21-.07-.33-.07Zm-260.45-120c-.08-.02-.16-.03-.25-.03-37.54-.17-41.39,54.79-3.68,59.09,14.36,2.51,28.95,4.33,42.97,8.13.09.02.18.03.27.03,41.56-1.67,64.8,70.38,103.77,39.22.12-.1.23-.23.29-.38,32.02-69.47-94.71-93.97-143.37-106.07ZM727.84,1021.18c-5.38-46.61-96.6-32.5-101.7-94.79-.02-.2-.1-.4-.22-.55-47.46-56.8-76.88,24.01-31.96,62.18.02.02.04.04.06.06,26.8,28.13,117.48,100.25,133.8,33.47.03-.12.04-.25.02-.37Zm-206.06-286.32c-14.57-96.96-115.13-30.79-13.43,114.17.04.05.07.11.09.17,15.04,36.26,71.06,7.74,52.09-26.47-15.59-27.6-41.73-53.73-38.75-87.65,0-.07,0-.15,0-.23Zm962.04,161.49c.03-.15.02-.3-.01-.45-16.13-64.61-61.09-4.75-86.51,17.59-20.96,21.53-80.16,29.36-60.25,69.55.02.03.03.06.05.09,28.1,47.29,139.59-51.94,146.72-86.78ZM536.48,270.76c-36.74,14.33-133.77,121.88-74.61,150.04.11.05.23.08.35.1,52.04,5.54,45.09-79.95,93.11-96,.09-.03.19-.08.27-.14,23.42-16.88,11.53-53.7-18.73-54.07-.13,0-.26.02-.39.07Zm-58.49,245.18c18.86-44.52-46.2-78.44-56.1-25.78-.01.06-.02.11-.02.17-1.24,39.99,6.13,79,8.05,118.74,0,.02,0,.04,0,.06-1.21,36.41,56.88,38.53,57.6,1.86-.58-31.77-11.22-62.73-9.61-94.72,0-.11.03-.23.08-.33Zm3389.8,756.2c15.35-46.75-49.4-80.39-58.1-23.81-.03.18,0,.37.07.53,15.12,35.2-29.54,86.74,9.35,108.05.08.05.18.08.27.11,43.27,10.21,49.4-54.15,48.36-84.57,0-.11.01-.21.05-.32Z"/>
      <path class="cls-1" d="m1824.49,2476.38c35.98-4.65,70.13-15.14,103.78-27.95,29.34-11.17,57.43-24.86,83.98-41.68,3.34-2.12,6.94-3.82,11.45-6.28,4.31,2.79,8.83,5.33,12.94,8.42,47.92,36.05,95.31,72.82,143.78,108.11,52.25,38.04,105.76,74.28,162.01,106.31,49.35,28.1,101.5,50.14,154.17,70.9,27.2,10.72,55.26,19.25,82.93,28.79,3.72,1.28,7.38,2.75,11.7,4.36-.95,3.1-1.24,5.8-2.5,7.92-23.88,40.1-49.65,78.84-81.29,113.4-16.77,18.32-36.49,33.09-56.71,47.18-51.05,35.58-107.96,56.99-168.79,68.55-7.81,1.48-15.82,2.05-23.77,2.53-29.82,1.81-64.66,5.57-95.49,3.98-.94-3.67,2.65-6.36,2.73-9.39.72-28.67-2.02-57.05-6.62-85.3-.1-.61.27-1.29.78-3.46,5.31-1.95,11.76-3.61,17.5-6.61,7.59-3.96,20.11,3.1,26.29-2.64,12.6-11.71,11.92-45.13-1.02-56.17-11.25-9.59-30.09-2.47-43.91-4.39-5.84-.81-11.88-.14-17.6-.14-13.17-26.54-25.79-51.96-38.75-78.05,6.94-5.37,13.96-10.36,20.48-15.92,11.77-10.04,26.42-16.93,30.9-32.56,2.19-9.87-3.96-28.08-29.76-45.62-13.63.5-27.8,12.22-39.49,18.91-9.17,5.25-18.19,10.76-27.82,16.49-8.26-8.65-16.06-16.79-23.82-24.96-6.19-6.51-13.32-10.91-22.67-10.96-11.88-.06-18.39,9.38-13.57,20.35,1.58,3.59,4.42,6.61,6.64,9.92,7.04,10.47,14.05,20.96,21.39,31.9-2.67,3.81-4.77,7.07-7.13,10.13-4.07,5.27-8.72,10.15-12.35,15.69-3.91,5.97-11.53,11.3-9.15,19.09,2.24,7.33,7.05,14.14,11.82,20.34,3.85,5.02,9.78,6.66,16.23,4.02,9.22-3.77,18.48-7.43,28.13-11.3,8.43,8.07,9.36,19.17,13.01,28.86,3.48,9.25,5.71,18.98,8.8,29.53-15.18,3.27-29.46,6.08-43.59,9.47-14.77,3.54-22.05,14.97-19.91,29.75,1.31,9.03,6.25,14.86,15.04,16.37,15.73,2.7,31.58,4.73,47.38,6.96,3.89.55,7.82.79,12.28,1.22,1.44,4.08,3.76,7.71,3.88,11.42.78,25.87-1.39,52.56-4.25,79.61-3.87.78-3.85,1.84-7.33,1.3-22.98-3.6-46.14-5.37-69.23-7.83-16.62-1.77-33.11-3.03-49.74-2.73-9.3.17-18.57,1.35-27.86,2.03-7.97.58-15.98,1.92-23.9,1.49-39.12-2.11-76.77,6.59-114.1,16.09-71.63,18.23-137.91,48.05-198.11,91.66-51.77,37.5-104.64,73.5-157.51,109.45-56.12,38.16-117.76,64.34-183.08,82.42-62.12,17.2-124.95,31.32-188.1,43.94-30.56,6.11-61.62,9.7-92.95,9.38-22.66-.24-45.42.96-67.95-.82-43.87-3.47-86.82-11.4-126.91-31.17-39.05-19.26-71.92-45.54-96.4-81.73-13.05-19.29-26.13-38.6-38.03-58.6-7.1-11.92-11.9-25.2-17.83-37.82-4.52-9.62-8.91-19.33-13.87-28.73-10.57-20.01-21.34-39.91-32.29-59.72-14.23-25.72-32.24-48.76-50.26-71.9-10.13-13.01-17.83-27.98-26.15-42.34-22.94-39.6-34.46-83.19-43.37-127.54-2.73-13.6-3.3-27.64-4.88-41.47-.53-4.62-1.21-9.22-1.72-13.85-.51-4.61-1.66-9.31-1.21-13.84,3.7-36.98,7.16-74.04,18.38-109.74,3.19-10.15,7.45-19.95,10.92-30.01,2.76-7.99,7.79-13.66,15.22-17.68,18.25-9.87,36.46-18.81,58.25-18.15,29.5.9,50.86,14.38,64.43,39.85,7.48,14.04,13.09,29.08,19.38,43.74,5.08,11.85,16.82,13.57,24.99,3.55,6.52-7.99,10.27-17.34,10.96-27.38,1.56-22.68.66-45.02-8.57-66.59-12.91-30.16-33.17-52.73-63.29-66.17-4.8-2.14-9.56-4.35-16.94-7.71,19.42-15.39,36.58-29.04,53.8-42.63,29.27-23.1,58.8-45.89,87.8-69.33,24.7-19.97,40.24-45.1,45.05-77.41,2.98-20.07,4.41-39.55.2-59.38-.55-2.58-.55-5.29-.7-7.95-.8-14.62-1.36-29.26-2.42-43.86-.52-7.16,1-13.06,6.73-17.77,20.21-16.59,41.09-31.89,68.28-34.67,24.58-2.51,47.94.8,67.48,17.27,21.02,17.72,35.08,39.83,39.65,67.43,1.08,6.54,2.86,12.96,4.53,20.36,2.52,1.27,5.26,3.41,8.31,4.04,7.89,1.64,11.34-.09,14.81-6.67,5.74-10.87,7.57-22.94,8.18-34.79,3.08-59.97-16.84-111.11-60.61-152.58-19.37-18.35-42.56-29.7-68.48-34.95-19.43-3.94-38.45-.88-56.52,7.34-5.41,2.46-10.66,5.27-17.63,8.74-.28-4.34-1.28-7.49-.52-10.12,5.56-19.14,11.75-38.1,17.16-57.28,2.03-7.21,6.47-11.35,12.86-14.1,7.34-3.16,14.61-6.53,22.09-9.3,53.03-19.65,105.74-40.2,160.17-55.82,6.37-1.83,12.82-3.39,19.02-5.01,62.78,50.41,129.85,93.85,196.79,137.41,67.04,43.62,140.32,76.02,211.23,114.16-2.55,13.09-5.07,25.32-7.3,37.6-8.83,48.56-3.22,95.5,16.82,140.52,23.87,53.61,56.67,100.94,100.87,139.96,39.1,34.51,82.87,60.27,134.57,70.81m-913.69,539.11c18.7,36.85,45.2,68.24,76.75,95.47,20.49,17.69,43.9,30.28,70.2,36.77,47.51,11.73,95.16,12.03,142.02-2.64,58.17-18.21,108.69-49.81,153.24-91.24,23.06-21.45,41.48-46.86,61.36-71.02,10.56-12.84,20.63-26.08,30.56-39.41,32.75-43.95,8.5-113.98-43.45-129.03-34.54-10-66.46,4.16-77.99,31-3.31,7.71-8.39,13.43-15.48,17.68-9.7,5.83-18.8,12.9-29.01,17.55-39.42,17.98-79.93,33.07-122.73,40.95-22.21,4.09-44.55,7.57-66.92,10.65-29.67,4.09-58.74,11.3-88.54,15.02-32.88,4.1-65.02,2.42-97.2-3.7-29.7-5.65-57.5-16.82-84.2-30.7-10.18-5.29-20.51-9.12-31.61-9.93-12.72,14.01-13.95,21.91-4.13,35.38,18.35,25.18,40.33,46.26,70.21,57.31,18.67,6.9,37.58,13.16,56.92,19.89h0Zm491.85-409.37c.78-29.72-12.45-61.41-31.03-84.22-30.33-37.25-68.22-54-116.36-42.19-21.69,5.32-41.28,14.53-57.14,30.82-12.2,12.54-22.08,26.79-29.29,42.53-8.55,18.69-15.75,38.01-23.31,57.15-2.92,7.39-4.83,15.2-7.93,22.5-2.76,6.49,1.66,13.57,7.09,16.8,5.31,3.16,11.38,2.6,16.35-2.42,3.71-3.75,6.84-8.13,9.94-12.43,10.96-15.2,23.68-28.65,38.4-40.31,21.28-16.85,46.47-24.3,72.44-23.91,32.19.47,60.95,12.11,81.57,39.13,4.75,6.23,10.81,11.7,17.05,16.5,8.74,6.73,20.68,1.12,22.17-9.99.44-3.27.07-6.64.07-9.96h-.02Z"/>
      <path class="cls-1" d="m3311.47,2476.29c-223,88-378.98,43.37-405.97,38.9-13.74-2.28-27.38-5.58-40.78-9.44-28.83-8.31-56.74-19.16-83.58-32.63-6.54-3.28-13.01-6.75-19.22-10.59-11.33-7-22.41-14.41-33.67-21.54-24.16-15.31-43.37-35.05-56.11-60.97-4.68-9.53-10.55-18.5-16.12-27.57-2.07-3.38-4.6-6.57-7.33-9.45-5.78-6.08-12.71-10.63-21.3-7.35-8.12,3.1-12.44,10.32-12.76,18.74-.46,11.96-1.19,24.22.8,35.91,5.49,32.3,15.6,63.11,32.62,91.5,16.9,28.2,16.68,28.43,9.63,59.52-2.32,10.22-5.46,20.26-8.62,31.84-182.2-66.34-349.33-157.38-506.84-268.81,3.84-6.1,7.21-11.71,10.84-17.16,27.8-41.86,43.46-87.96,48.71-137.83,2.16-20.56,3.65-40.81.7-61.66-7.44-52.61-32.94-93.57-75.99-123.87-29.97-21.1-63.64-33.8-99.82-38.18-42.29-5.11-70.55-8.58-113.34-6.81-69.05,2.86-159.32-9.19-357.27,76.76-1.16.63-15.29,6.83-18.56,8.01-112.57-54.05-208.79-119.57-311.71-189.21.87-4.84,3.94-4.47,6.36-4.38,10.64.37,21.28.89,31.91,1.58,6.64.43,13.24,1.72,19.88,1.86,53.52,1.09,105.71,11.49,157.8,22.51,22.73,4.81,45.66,7.83,68.75,10.58,37.95,4.52,75.87,2.56,113.8,3.15,27.33.42,54.28-4.06,81.4-6.53,49.26-4.48,170.57-18.29,218.88-27.35,30.01-5.63,226.76,2.94,228.76,2.94,43.98-.03,324.49,36.15,390.93,49.58,42.94,8.68,86.01,16.68,129.03,24.98,5.89,1.14,12.3,1.16,17.57,3.62,11.3,5.27,21.26,2.69,32.35-1.15,47.49-16.46,96.09-27.7,146.82-25.15,17.24.87,135.03,17.94,165.26,32.37,38.46,18.37,76.49,37.65,114.53,56.88,11.87,6,23.66,12.4,34.64,19.85,20.45,13.87,41.69,26.24,63.63,37.56,19.53,10.08,38.69,20.88,57.88,31.61,38.9,21.75,80.84,34.09,124.66,40.75,21.08,3.2,42.09,7,63.26,9.37,26.46,2.96,53.02,5.35,79.6,6.82,21.28,1.18,239.79,25.2,264,31.97,1.98.55,3.09,11.72-.14,13.34-9.52,4.79-24.02,22.69-33.66,27.23-24.51,24.51-59.21,49.9-94.3,79.01-7.1,7.83-73.59,50.39-115.21,75.78"/>
      <path class="cls-1" d="m1597.47,107.29c147,4,213.65,15.79,249.42,25.9,9.54,2.69,18.82,6.28,31,10.4-16.47,7.65-30.38,12.66-42.76,20.19-20.47,12.44-40.42,25.86-59.69,40.1-14.43,10.66-27.72,22.94-41.01,35.06-34.98,31.88-69.37,64.41-104.57,96.03-41.21,37.03-80,76.4-116.99,117.6-38.29,42.65-75.42,86.38-116.87,126.1-33.68,32.28-66.71,65.29-101.27,96.61-40.54,36.76-84.38,69.46-130.74,98.62-40.94,25.75-89.93,34.9-136.12,48.41-27.06,7.91-137.83-17.72-151.89-23.72-30.63-13.07-86.51-40.45-99.91-47.87-6.38-3.53-12.16-8.15-18.25-12.21-10.11-6.74-13.08-16.07-10.57-27.69,10.92-50.63,21.99-101.2,39.01-150.27,17.69-51.04,39.2-100.36,64.18-148.26,38.1-73.05,94.28-128.08,164.47-169.94,56.4-33.63,116.4-58.71,179.26-77.29,60.62-17.92,122.22-31.18,184.8-40.09,28.2-4.02,56.35-8.18,84.71-11.19"/>
      <path class="cls-1" d="m713.98,1919.43c-4.53,17.73-8.86,33.57-12.58,49.55-7.71,33.06-11.67,66.57-13.6,100.52-2.05,36.04.45,71.86,1.71,107.76.58,16.54,4.2,32.98,1.51,50.95-2.46-.55-4.99-.55-6.89-1.64-26.35-15.17-55.17-23.16-84.86-27.46-14.35-2.07-29.36-1.81-43.84-.33-21.05,2.15-41.85,6.58-62.82,9.66-36.9,5.41-73.97,9.66-111.32,7.2-38.53-2.54-74.27-14.89-107.29-34.56-17.57-10.46-29.66-26.51-39.54-44.19-4.94-8.84-5.33-17.59,1.47-27.37,5.97-.21,12.56-.84,19.12-.62,30.09,1.01,59.71-4.02,89.25-8.08,65.15-8.96,125.96-31.55,184.34-61.61,52.31-26.94,100.89-59.48,148.15-94.24,9.65-7.1,19.2-14.35,28.89-21.4,1.95-1.42,4.35-2.2,8.33-4.16l-.03.02Z"/>
      <path class="cls-1" d="m905.99,3091.68c.73-5.34,5.52-6.37,8.78-8.07,4.69-2.45,11.6-3.89,15.96-6.81,5.04-3.38,3.93-7.57,2.58-13.04-1.24-5.01-5.06-7.86-9.95-8.63-3.9-.61-7.95-.39-11.94-.4-17.32-.04-34.65-.21-51.97.04-8.7.13-15.37-3.03-20.75-9.78-6.1-7.66-13.42-14.41-17.82-22.82,3.29-5.21,7.72-3.34,11.34-4.05,3.91-.77,7.91-1.56,11.87-1.55,40.99.1,80.44-9.48,119.84-19.14,56.2-13.78,111.71-29.99,166.71-48.04,31.24-10.26,61.46-22.04,85.87-45.15,2.56-2.42,6.11-3.87,8.88-1.14,2.09,2.06,4.37,5.81,3.88,8.27-1.67,8.43-3.07,17.45-7.23,24.73-7.9,13.81-17.32,26.79-26.79,39.62-3.03,4.11-7.89,7.15-12.43,9.8-16.67,9.73-33.49,19.22-50.4,28.54-18.86,10.4-39.43,16.09-60.5,19.17-29.58,4.32-59.37,7.16-89.03,10.98-6.53.84-13.08,2.58-19.25,4.89-8.84,3.31-9.75,7.85-8.38,18.88,2.31,2.78,3.86,6.97,7.49,7.99,3.05.86,11.51,1.52,14.81,1.7,11.26.62,22.51,1.56,33.78,2.15,9.3.49,18.63.51,27.94,1.03,3.53.2,7.01,1.22,12.13,2.17-39.63,23.88-108.41,25.3-145.42,8.66h0Z"/>
    </g>
  </g>
</svg>